PathFileType	4	(X/Y/Z)	/Users/itak/Documents/Research/Walk-IL/dataset/trc/00366_00011.trc
DataRate	CameraRate	NumFrames	NumMarkers	Units	OrigDataRate	OrigDataStartFrame	OrigNumFrames
100.000000	100.000000	4	56	mm	100.000000	245	392
Frame#	Time	RPSI			LPSI			L3			STRN			T10			C7			CLAV			RBAK			LBAK			LSHO			LUPA			LAEL			LAOL			LWPS			LFRA			LIFD			LHPS			LHTS			RSHO			RUPA			RAEL			RAOL			RWTS			RWPS			RFRA			RIFD			RHTS			RHPS			RBHD			LFHD			RFHD			LBHD			LHIP			RHIP			RASI			LASI			LKNE			LTHI			LANK			LTIP			LTOE			LMT1			LMT5			LHEE			RKNE			RTHI			RANK			RTIP			RTOE			RMT1			RMT5			RHEE			LWTS			*53			*54			*55			
		X1	Y1	Z1	X2	Y2	Z2	X3	Y3	Z3	X4	Y4	Z4	X5	Y5	Z5	X6	Y6	Z6	X7	Y7	Z7	X8	Y8	Z8	X9	Y9	Z9	X10	Y10	Z10	X11	Y11	Z11	X12	Y12	Z12	X13	Y13	Z13	X14	Y14	Z14	X15	Y15	Z15	X16	Y16	Z16	X17	Y17	Z17	X18	Y18	Z18	X19	Y19	Z19	X20	Y20	Z20	X21	Y21	Z21	X22	Y22	Z22	X23	Y23	Z23	X24	Y24	Z24	X25	Y25	Z25	X26	Y26	Z26	X27	Y27	Z27	X28	Y28	Z28	X29	Y29	Z29	X30	Y30	Z30	X31	Y31	Z31	X32	Y32	Z32	X33	Y33	Z33	X34	Y34	Z34	X35	Y35	Z35	X36	Y36	Z36	X37	Y37	Z37	X38	Y38	Z38	X39	Y39	Z39	X40	Y40	Z40	X41	Y41	Z41	X42	Y42	Z42	X43	Y43	Z43	X44	Y44	Z44	X45	Y45	Z45	X46	Y46	Z46	X47	Y47	Z47	X48	Y48	Z48	X49	Y49	Z49	X50	Y50	Z50	X51	Y51	Z51	X52	Y52	Z52	X53	Y53	Z53	X54	Y54	Z54	X55	Y55	Z55	X56	Y56	Z56	

246	2.45	-39.21169662475586	959.8787231445312	436.7352600097656	86.74494934082031	961.1356201171875	401.79931640625	21.95627403259277	1020.659729003906	424.5610046386719	82.55241394042969	1205.8662109375	642.3355712890625	29.45981597900391	1139.704345703125	410.7377624511719	52.30197525024414	1389.3515625	446.075439453125	76.07085418701172	1331.984252929688	600.3496704101562	-19.99460601806641	1248.217895507812	414.3372192382812	148.8209838867188	1353.633666992188	412.624755859375	219.1365966796875	1368.266723632812	486.3585510253906	282.6347045898438	1249.991943359375	454.7401123046875	317.4172058105469	1051.488525390625	473.1598815917969	247.8548583984375	1028.063842773438	428.0428771972656	370.2259216308594	813.6215209960938	556.414306640625	339.4172668457031	950.5394287109375	494.2859497070312	329.9789123535156	666.0776977539062	633.6314697265625	368.4414367675781	742.5233154296875	564.6641845703125	343.8035583496094	752.0131225585938	623.5673217773438	-96.59250640869141	1376.97216796875	529.8568725585938	-162.0186767578125	1315.613525390625	526.3856811523438	-204.6032867431641	1052.604858398438	506.3550415039062	-117.5111923217773	1044.134399414062	470.247802734375	-166.0211791992188	828.8724365234375	623.1958618164062	-231.9945526123047	813.0512084960938	587.4512939453125	-217.2352142333984	984.2362060546875	528.5963134765625	-180.9709625244141	654.9830932617188	640.4478149414062	-181.2843780517578	726.9737548828125	652.90478515625	-229.1626586914062	729.07275390625	602.9197998046875	-17.37212753295898	1596.612182617188	518.8872680664062	122.8784408569336	1593.737670898438	671.8823852539062	22.17500877380371	1593.750122070312	676.4540405273438	122.7204208374023	1594.870239257812	485.4854431152344	211.0089721679688	904.2509155273438	456.5225524902344	-118.7026443481445	906.6357421875	546.5194702148438	-46.48143005371094	935.7801513671875	633.1785888671875	188.3031768798828	931.1731567382812	588.7794799804688	249.1056060791016	456.927001953125	528.7123413085938	249.4912719726562	587.2931518554688	526.7149658203125	130.5229034423828	232.3790588378906	178.6207733154297	203.8190765380859	324.5128173828125	349.2082214355469	117.6142730712891	39.69264602661133	271.5842590332031	62.53741836547852	95.91872406005859	255.6970825195312	165.8781433105469	114.1852264404297	208.9744110107422	58.77490234375	253.2527008056641	189.169677734375	-20.34403991699219	446.3101806640625	647.349365234375	-85.24729919433594	704.4174194335938	643.5381469726562	59.14691162109375	45.38225936889648	607.2509765625	11.18898296356201	330.6644897460938	663.3298950195312	124.6110916137695	45.5245361328125	797.1407470703125	162.1234588623047	41.38062286376953	738.4450073242188	49.4991340637207	34.33712387084961	709.1552734375	104.3923263549805	47.15604019165039	555.088623046875	321.4393310546875	827.315673828125	603.92333984375	nan	nan	nan	nan	nan	nan	nan	nan	nan	
247	2.46	-36.73666000366211	960.9367065429688	442.9265747070312	89.55842590332031	961.9122924804688	409.2121276855469	24.05931854248047	1021.438598632812	431.4112854003906	83.60965728759766	1206.991088867188	649.8397827148438	30.98175048828125	1140.780395507812	417.9700317382812	53.6261100769043	1390.436157226562	453.6386108398438	77.18002319335938	1333.000366210938	607.82470703125	-18.89986228942871	1249.364379882812	421.6888732910156	150.1440582275391	1354.725341796875	420.3068237304688	220.6215667724609	1369.220581054688	494.0718994140625	283.3430786132812	1250.4736328125	462.2867431640625	315.8740539550781	1051.498657226562	479.429443359375	246.2886047363281	1029.210815429688	433.8747863769531	365.9126892089844	810.6636962890625	556.95263671875	336.7421264648438	949.6727905273438	498.6860046386719	323.87060546875	661.39111328125	629.7761840820312	363.1442260742188	739.3845825195312	562.9971313476562	338.7833862304688	747.541259765625	622.2269897460938	-95.39637756347656	1378.141967773438	537.2816772460938	-160.8424987792969	1316.71826171875	534.15087890625	-204.5865783691406	1053.447509765625	518.0427856445312	-118.411491394043	1044.325805664062	480.2298889160156	-161.2649536132812	834.6694946289062	641.6198120117188	-228.1078491210938	816.8504028320312	608.2249755859375	-216.3341827392578	985.6498413085938	542.4569702148438	-175.1293029785156	661.9741821289062	667.86865234375	-175.5884552001953	734.4679565429688	676.7307739257812	-224.6699523925781	733.9346923828125	627.7163696289062	-16.08588790893555	1597.775634765625	526.1895141601562	123.923583984375	1594.92236328125	679.37158203125	23.2198543548584	1595.078002929688	683.795654296875	124.0273895263672	1595.786743164062	492.9438171386719	213.0330657958984	905.2413330078125	465.8871765136719	-117.5313491821289	907.4141845703125	551.6112670898438	-46.31688690185547	936.7047729492188	639.2495727539062	188.8643493652344	932.7703247070312	597.5138549804688	253.8724060058594	459.10693359375	548.8635864257812	253.6300811767578	589.5579833984375	543.4652709960938	139.6179962158203	231.8159790039062	198.4556579589844	210.6757965087891	325.3577270507812	370.0374450683594	123.5441513061523	41.83411026000977	295.7840576171875	68.98761749267578	97.63492584228516	277.11572265625	173.3963165283203	114.124885559082	232.0610961914062	67.9224853515625	253.6483154296875	207.4094696044922	-20.10569763183594	446.336669921875	649.267578125	-84.46603393554688	704.4426879882812	647.3624267578125	59.11724472045898	45.40486145019531	607.2587890625	11.10940170288086	330.518798828125	664.5499877929688	124.5442581176758	45.44918823242188	797.1184692382812	162.0693664550781	41.41070175170898	738.4595947265625	49.45566558837891	34.28752517700195	709.1572265625	104.4343872070312	47.26720428466797	555.1171875	317.3703918457031	823.6751098632812	604.837890625	nan	nan	nan	nan	nan	nan	nan	nan	nan	
248	2.47	-34.23741149902344	962.013427734375	448.9731140136719	92.37029266357422	962.8015747070312	416.5658874511719	26.1639575958252	1022.193481445312	438.0548706054688	84.60071563720703	1208.128295898438	657.2578735351562	32.52105712890625	1141.851440429688	424.9922485351562	54.95088195800781	1391.48974609375	461.09228515625	78.25236511230469	1334.02099609375	615.178466796875	-17.75197792053223	1250.507080078125	428.9009094238281	151.4798583984375	1355.791015625	427.9108276367188	222.0734100341797	1370.176879882812	501.72119140625	284.103759765625	1251.002807617188	469.7754821777344	314.3905334472656	1051.558349609375	485.4888000488281	244.7511444091797	1030.4423828125	439.58056640625	361.6639099121094	808.0486450195312	557.391845703125	334.114990234375	949.0202026367188	502.9711303710938	317.8940124511719	657.2166748046875	625.7437133789062	358.037841796875	736.678955078125	561.2496337890625	333.834228515625	743.4473876953125	620.7189331054688	-94.22367095947266	1379.289184570312	544.5286865234375	-159.6825408935547	1317.807495117188	541.692626953125	-204.658203125	1054.360473632812	529.4468994140625	-119.3696060180664	1044.509399414062	490.1333618164062	-156.637451171875	840.8726806640625	659.6455688476562	-224.2798156738281	821.215576171875	628.7056884765625	-215.5220642089844	987.3104248046875	556.0946044921875	-169.3708038330078	669.853271484375	694.871337890625	-169.9821166992188	742.6488647460938	700.05859375	-220.2346343994141	739.5492553710938	652.1820678710938	-14.82647037506104	1598.8798828125	533.4030151367188	124.9041976928711	1596.043090820312	686.798583984375	24.20425605773926	1596.329833984375	691.0518798828125	125.3141098022461	1596.676635742188	500.3390197753906	215.0767517089844	906.3738403320312	475.0715942382812	-116.3557968139648	908.208984375	556.5359497070312	-46.23930740356445	937.6112670898438	645.1332397460938	189.3144989013672	934.3947143554688	606.1287841796875	258.2536315917969	461.5714721679688	568.6531982421875	257.4647216796875	591.9932861328125	559.9810791015625	148.587646484375	230.1137390136719	218.7427215576172	217.3256683349609	325.8370971679688	390.9352722167969	130.2135620117188	43.53814697265625	321.1916198730469	75.93534088134766	98.37197113037109	299.643310546875	181.2749938964844	113.3656921386719	256.0469360351562	76.91751098632812	252.6615905761719	226.1004943847656	-19.85058403015137	446.4135437011719	651.2090454101562	-83.62294769287109	704.5452880859375	651.1734619140625	59.07717132568359	45.43154525756836	607.2694702148438	11.06964302062988	330.4203796386719	665.7515869140625	124.467414855957	45.38845062255859	797.0990600585938	162.0022888183594	41.4532585144043	738.4675903320312	49.40896987915039	34.23336410522461	709.15771484375	104.462287902832	47.38579559326172	555.14892578125	313.293212890625	820.3125	605.5773315429688	nan	nan	nan	nan	nan	nan	nan	nan	nan	
249	2.48	-31.71030807495117	963.0635375976562	454.8751220703125	95.19190979003906	963.749267578125	423.8588256835938	28.26333045959473	1022.933410644531	444.4749450683594	85.50727081298828	1209.264404296875	664.5889892578125	34.08618545532227	1142.91455078125	431.8273010253906	56.28740310668945	1392.513427734375	468.4395751953125	79.29270172119141	1335.05224609375	622.4219360351562	-16.54527854919434	1251.640258789062	435.9801940917969	152.84033203125	1356.831665039062	435.4492492675781	223.4944000244141	1371.132446289062	509.3277587890625	284.9223022460938	1251.587158203125	477.2141418457031	312.9691467285156	1051.676513671875	491.3358459472656	243.2442932128906	1031.768676757812	445.1648559570312	357.4991760253906	805.7874145507812	557.7510986328125	331.5405578613281	948.5801391601562	507.1314697265625	312.0245666503906	653.6134643554688	621.5614624023438	353.12451171875	734.4020385742188	559.467529296875	328.9691467285156	739.7418212890625	619.0902099609375	-93.070068359375	1380.419677734375	551.5966796875	-158.530517578125	1318.885986328125	549.011962890625	-204.8127136230469	1055.346923828125	540.5516357421875	-120.3470611572266	1044.705322265625	499.9679565429688	-152.2145080566406	847.4513549804688	677.2155151367188	-220.5277252197266	826.1085205078125	648.7946166992188	-214.7962036132812	989.212646484375	569.4677734375	-163.6835632324219	678.5661010742188	721.301025390625	-164.4880676269531	751.469482421875	722.774658203125	-215.8564300537109	745.8670043945312	676.16650390625	-13.59786319732666	1599.917602539062	540.5254516601562	125.8212585449219	1597.109008789062	694.1665649414062	25.12477111816406	1597.509765625	698.2273559570312	126.5788269042969	1597.539916992188	507.6798095703125	217.1702423095703	907.6217651367188	484.072998046875	-115.1589508056641	909.0050659179688	561.31591796875	-46.24328994750977	938.4888305664062	650.84814453125	189.6783752441406	936.0313110351562	614.6334838867188	262.2309875488281	464.2733764648438	588.041015625	260.9821472167969	594.5579223632812	576.2180786132812	157.4188995361328	227.3113403320312	239.4531707763672	223.7415771484375	325.9810791015625	411.8513488769531	137.6353759765625	44.83169555664062	347.7755432128906	83.41371154785156	98.20920562744141	323.2975769042969	189.5496826171875	112.0272674560547	280.9389953613281	85.73386383056641	250.2862548828125	245.203369140625	-19.60522079467773	446.5283203125	653.1948852539062	-82.74956512451172	704.7249755859375	655.0089721679688	59.03228378295898	45.46389389038086	607.2845458984375	11.08712291717529	330.3695678710938	666.966796875	124.3848495483398	45.33760070800781	797.0836181640625	161.9277191162109	41.50371932983398	738.4689331054688	49.35820007324219	34.17633819580078	709.1560668945312	104.4755325317383	47.51433181762695	555.1815185546875	309.2372741699219	817.2608642578125	606.1856689453125	nan	nan	nan	nan	nan	nan	nan	nan	nan	
